<?xml version="1.0" encoding="UTF-8" standalone="no"?><!DOCTYPE svg PUBLIC "-//W3C//DTD SVG 1.1//EN" "http://www.w3.org/Graphics/SVG/1.1/DTD/svg11.dtd"><svg width="100%" height="100%" viewBox="0 0 3125 3125" version="1.1" xmlns="http://www.w3.org/2000/svg" xmlns:xlink="http://www.w3.org/1999/xlink" xml:space="preserve" xmlns:serif="http://www.serif.com/" style="fill-rule:evenodd;clip-rule:evenodd;stroke-linejoin:round;stroke-miterlimit:2;"><path d="M720.794,821.086l-82.484,26.245c69.986,46.241 141.222,69.986 214.331,73.109c-46.866,-26.868 -91.856,-58.114 -131.847,-99.354Zm1436.59,-641.123c314.931,79.986 629.236,219.331 905.44,404.919c-36.25,366.178 -110.602,699.236 -223.079,999.794c-38.75,-66.227 -81.851,-126.227 -128.726,-181.206c-96.852,-113.727 -211.204,-206.208 -333.681,-286.817c119.352,137.472 211.829,286.817 264.954,451.148c35.601,109.375 53.727,225.579 51.852,349.931c-166.204,324.953 -383.658,607.384 -651.112,848.587c-44.374,-131.226 -35.625,-253.078 -2.5,-367.43c98.727,-340.556 411.158,-616.736 183.704,-882.315c171.852,386.181 -413.032,652.986 -604.259,1206c-41.227,119.351 -64.352,251.828 -56.852,402.43c-304.94,-188.079 -564.887,-410.532 -779.845,-670.486c38.743,-76.875 86.234,-149.352 143.722,-215.579c60.614,-70 132.473,-133.102 219.331,-188.727c-68.111,-20.625 -143.722,-32.477 -231.828,-31.852c88.106,-59.374 179.338,-101.875 271.194,-136.851c142.472,16.875 278.699,54.976 403.051,129.977c-53.75,-80 -122.477,-145.602 -214.963,-192.477c103.736,-31.227 205.588,-58.727 304.315,-94.352c61.852,28.75 119.977,64.375 171.852,107.477c-21.875,-49.977 -50.625,-96.852 -88.75,-140.602c20,-8.75 40,-17.477 60,-27.477c66.227,-33.125 107.476,-75 126.227,-121.852c38.101,11.25 70.601,27.477 101.851,46.227c-23.124,-41.227 -53.75,-76.227 -89.976,-105.602c0.624,-94.352 -78.75,-196.831 -223.727,-271.192c93.125,-16.245 189.976,-13.123 291.828,19.373c-112.476,-122.477 -255.578,-201.836 -433.032,-234.329c55.602,-52.491 115.602,-101.854 182.454,-146.22c-93.102,8.748 -181.204,26.868 -266.206,54.363l111.229,6.873l-140.579,119.977c104.352,16.87 200.579,44.991 279.931,91.857c-316.806,79.983 -498.644,153.719 -246.831,210.583c-199.949,108.727 -363.667,254.942 -168.704,296.817c-146.847,96.227 -268.072,84.977 -373.676,1.875c41.241,-0 82.484,-4.375 123.725,-15.625c-33.118,-23.75 -60.614,-56.852 -83.109,-99.352c46.24,11.875 92.481,17.5 138.722,17.5l-33.118,-48.75c103.104,-114.972 -52.488,-253.072 251.826,-314.308c-206.835,-108.104 -310.564,-44.99 -512.398,55.614l-73.111,-39.993c14.373,54.365 33.118,104.979 58.739,151.22c-65.612,-26.244 -130.6,-58.114 -194.336,-100.605c11.248,48.741 21.245,89.357 31.243,124.975c-118.102,-61.236 -209.958,-161.843 -267.447,-309.313c221.206,101.23 306.19,-34.993 470.533,19.996c-14.373,-23.746 -34.369,-44.366 -62.489,-57.489c46.866,-29.368 92.482,-60.613 140.597,-88.106c64.986,-35.618 144.97,3.125 198.086,-99.982c22.495,-44.365 47.491,-84.356 89.356,-118.099c-84.358,11.247 -136.847,41.241 -212.458,146.22c-68.111,95.606 -193.711,18.12 -305.562,-87.482c303.689,11.871 366.176,-301.19 656.118,-412.419c-31.868,46.866 -59.989,94.982 -79.984,146.222c140.597,-91.233 300.574,-159.345 454.278,-237.453c-66.852,-5.623 -133.102,-9.373 -198.704,-9.373c-112.477,0 -226.829,9.373 -341.808,26.87l-20.62,108.727c-72.486,61.239 -138.722,141.848 -217.456,184.963c48.741,-106.229 121.849,-194.96 191.21,-286.817c-334.307,56.863 -667.365,181.838 -947.935,344.931c74.361,586.134 273.697,1099.15 629.875,1522.81c-58.738,59.375 -110.602,123.102 -153.095,193.727c-354.928,-471.157 -571.134,-1056.05 -640.495,-1767.15c452.407,-304.314 1010.42,-483.03 1499.7,-483.03c134.352,0 273.704,13.123 414.282,38.743c60.625,-40.618 116.852,-86.859 168.102,-139.972c-6.875,63.113 -28.75,115.602 -59.375,161.843c-32.477,49.365 -76.227,90.606 -124.329,129.349c-140.601,112.477 -324.328,198.086 -415.557,359.303c94.354,-41.243 196.831,-68.111 307.433,-81.858l-180.579,-15.623l53.75,-46.866c153.704,-40.616 310.555,-58.738 469.282,-62.486c-73.125,29.368 -143.727,61.861 -211.851,99.354c256.828,52.489 470.532,160.593 644.884,319.31c-99.977,-23.12 -201.829,-34.99 -303.704,-33.118c195.602,81.859 348.68,201.211 460.532,356.804c52.5,-175.588 90,-359.301 114.352,-551.764c-249.305,-144.345 -539.884,-259.322 -836.065,-323.061c37.477,-38.742 69.352,-82.483 94.352,-131.224Z" style="fill:#db4733;fill-rule:nonzero;"/></svg>