<?xml version="1.0" encoding="UTF-8" standalone="no"?><!DOCTYPE svg PUBLIC "-//W3C//DTD SVG 1.1//EN" "http://www.w3.org/Graphics/SVG/1.1/DTD/svg11.dtd"><svg width="100%" height="100%" viewBox="0 0 3125 3125" version="1.1" xmlns="http://www.w3.org/2000/svg" xmlns:xlink="http://www.w3.org/1999/xlink" xml:space="preserve" xmlns:serif="http://www.serif.com/" style="fill-rule:evenodd;clip-rule:evenodd;stroke-linejoin:round;stroke-miterlimit:2;"><g><path d="M1653.54,532.753l0,2592.25c347.314,-200.466 627.948,-486.04 821.717,-821.67c193.77,-335.677 300.771,-721.469 300.771,-1122.5l-1122.49,-648.075Z" style="fill:#fff;fill-rule:nonzero;"/><g><path d="M1651.07,532.753l-0,2592.25c-347.299,-200.466 -627.938,-486.04 -821.722,-821.67c-193.779,-335.677 -300.766,-721.469 -300.766,-1122.5l1122.49,-648.075Z" style="fill:#151515;fill-rule:nonzero;"/><path d="M1654.11,529.842l0,1708.14c-228.862,-132.124 -413.784,-320.285 -541.472,-541.458c-127.689,-221.178 -198.187,-475.392 -198.187,-739.646l739.659,-427.034Z" style="fill:#151515;fill-rule:nonzero;"/><path d="M1654.11,0l0,534.406l-1.282,-0.755l-0.428,-0.252l-0.474,0.252l-60.744,35.073l-97.806,56.474l-47.716,27.55l-159.29,91.936l-206.284,119.102l-159.29,91.965l-206.256,119.097l-159.319,91.97l-206.255,119.097l-0,-534.377l206.255,-119.098l0,311.258l159.319,-91.97l0,-311.281l206.256,-119.068l-0,311.252l159.29,-91.965l0,-311.286l206.284,-119.068l0,311.252l159.29,-91.936l0,-311.285l207.168,-117.616l1.282,-0.727Z" style="fill:#151515;fill-rule:nonzero;"/><path d="M2021.85,210.312l0,311.252l-159.289,-91.936l57.561,-79.293l101.728,-140.023Z" style="fill:#151515;fill-rule:nonzero;"/><path d="M2387.4,421.379l-0,311.252l-159.29,-91.965l159.29,-219.287Z" style="fill:#151515;fill-rule:nonzero;"/><path d="M2753,632.44l-0,311.258l-159.338,-91.97l159.338,-219.288Z" style="fill:#151515;fill-rule:nonzero;"/></g></g></svg>