<?xml version="1.0" encoding="UTF-8" standalone="no"?><!DOCTYPE svg PUBLIC "-//W3C//DTD SVG 1.1//EN" "http://www.w3.org/Graphics/SVG/1.1/DTD/svg11.dtd"><svg width="100%" height="100%" viewBox="0 0 3125 3125" version="1.1" xmlns="http://www.w3.org/2000/svg" xmlns:xlink="http://www.w3.org/1999/xlink" xml:space="preserve" xmlns:serif="http://www.serif.com/" style="fill-rule:evenodd;clip-rule:evenodd;stroke-linejoin:round;stroke-miterlimit:2;"><g><path d="M2336.58,1786.61l-36.567,-316.376l17.477,-271.793l-334.399,110.726l263.295,-125.839l0,-55.363c0,-392.609 -407.553,-545.993 -407.553,-545.993l-134.714,312.609l148.549,-703.208l-290.17,-191.373l-290.171,191.373l148.55,703.208l-134.714,-312.609c-0,0 -407.554,153.384 -407.554,545.993l0,55.363l263.295,125.839l-334.398,-110.726l17.477,271.793l-36.567,316.376l80.44,-64.028l-72.109,327.009c-0,0 116.252,296.283 516.061,605.836l14.38,-845.436l-341.306,-183.714l-17.666,-218.335l532.053,150.999l-60.324,407.679l122.553,113.259l122.553,-113.259l-60.324,-407.679l532.052,-150.999l-17.666,218.335l-341.306,183.714l14.381,845.436c399.808,-309.553 516.061,-605.836 516.061,-605.836l-72.109,-327.009l80.44,64.028Z" style="fill:#ffba03;fill-rule:nonzero;"/><path d="M2836.92,785.319l-27.107,-25.012c-16.389,-15.113 -342.478,-310.321 -874.509,-413.655l-33.344,134.163c23.296,12.278 52.705,29.086 85.128,50.482c357.883,88.749 602.8,266.979 681.314,330.087l0.021,64.28c-0,976.362 -368.601,1652.46 -1095.55,2009.53l-7.096,3.914c-0.795,0.461 -1.905,1.089 -3.286,1.8c-1.34,-0.691 -2.428,-1.298 -3.182,-1.737l-7.2,-3.977c-726.944,-357.067 -1095.55,-1033.38 -1095.55,-2010.1l0.021,-63.694c78.597,-63.192 323.306,-241.129 681.021,-329.919c32.549,-21.486 62.061,-38.359 85.421,-50.671l-33.344,-134.163c-532.032,103.334 -858.12,398.542 -874.51,413.655l-27.106,25.012l-0.021,139.759c0,169.669 0,566.987 152.736,997.481c186.268,524.957 534.146,916.038 1034.07,1162.44c18.378,10.592 46.301,22.585 54.945,26.227l32.695,13.773l32.695,-13.773c8.644,-3.642 36.567,-15.635 54.944,-26.227c499.735,-246.319 847.614,-637.944 1034.07,-1164.07c152.737,-430.976 152.737,-840.937 152.737,-995.263l-0.021,-140.345Z" style="fill:#ffba03;fill-rule:nonzero;"/></g></svg>