<?xml version="1.0" encoding="UTF-8" standalone="no"?><!DOCTYPE svg PUBLIC "-//W3C//DTD SVG 1.1//EN" "http://www.w3.org/Graphics/SVG/1.1/DTD/svg11.dtd"><svg width="100%" height="100%" viewBox="0 0 3125 3125" version="1.1" xmlns="http://www.w3.org/2000/svg" xmlns:xlink="http://www.w3.org/1999/xlink" xml:space="preserve" xmlns:serif="http://www.serif.com/" style="fill-rule:evenodd;clip-rule:evenodd;stroke-linejoin:round;stroke-miterlimit:2;"><g><path d="M1927.9,1273.31l4.494,-0c4.473,-0 8.967,4.494 13.44,4.494c80.706,26.902 394.539,161.389 327.295,470.772c-80.706,358.669 -659.085,780.132 -708.394,1049.13l-4.472,0c-49.331,-268.996 -632.183,-690.459 -708.394,-1049.13c-80.705,-354.197 345.23,-475.266 345.23,-475.266c4.472,-4.473 -22.43,327.295 156.916,363.163c67.244,-4.472 107.608,-40.341 152.444,-62.77c-17.935,-8.968 -40.364,-22.407 -62.771,-44.837c80.706,22.43 161.411,22.43 237.622,0c-22.429,22.43 -44.836,35.869 -67.266,44.837c58.299,22.429 107.608,76.233 179.346,80.705c116.575,-22.407 139.004,-174.851 143.477,-277.964c-4.473,-35.869 -4.473,-67.266 -8.967,-103.134Zm-363.165,408c17.935,0 49.309,8.967 76.211,35.869c44.837,35.87 89.673,31.397 89.673,31.397c-17.934,44.814 -98.64,62.749 -161.389,13.439c-67.266,44.837 -143.477,31.375 -170.378,-13.439c-0,-0 44.836,4.473 89.672,-31.397c26.902,-26.902 58.277,-35.869 76.211,-35.869Z" style="fill:#186dee;"/><path d="M2066.88,1085c174.874,26.902 282.459,76.233 282.459,125.542c0,94.168 -354.197,165.906 -789.077,165.906c-434.903,0 -784.627,-71.738 -784.627,-165.906c0,-49.309 107.608,-98.64 277.986,-125.542c31.375,4.495 58.276,8.968 89.673,13.463l-8.967,22.407l856.342,-0l-13.461,-22.407c31.396,-4.495 62.771,-8.968 89.672,-13.463Z" style="fill:#186dee;"/><path d="M1510.93,1120.87l-376.604,-0l8.967,-22.407c107.585,13.439 233.127,22.407 367.637,22.407Zm466.277,-22.407l13.461,22.407l-381.098,-0c134.509,-0 260.051,-8.968 367.637,-22.407Zm-461.783,-981.885l295.899,-116.575l-152.444,260.051l-40.342,22.408l53.804,4.494l246.589,650.095c-107.607,13.462 -228.655,17.935 -358.669,17.935c-125.542,0 -246.612,-4.473 -354.197,-17.935l309.36,-820.473Z" style="fill:#186dee;"/><path d="M1519.9,3098.1c-381.099,-219.687 -699.426,-538.015 -923.608,-919.114c-210.721,-372.131 -331.768,-798.066 -331.768,-1255.38l-0,-49.331l40.342,-22.407c188.313,-112.102 390.066,-197.28 605.281,-251.084c121.047,-35.869 246.589,-58.276 376.603,-71.738l-94.145,183.818c-80.706,13.462 -161.411,31.397 -237.622,53.804c-183.818,49.331 -358.691,116.575 -520.081,206.248c8.968,408 121.048,789.098 309.361,1120.89c197.258,340.735 479.738,627.688 816.001,833.914c336.262,-206.226 618.72,-493.179 815.979,-833.914c192.808,-331.79 304.887,-712.888 313.855,-1120.89c-165.884,-89.673 -336.263,-156.917 -520.081,-206.248c-80.705,-22.407 -156.938,-40.342 -237.622,-53.804l-98.642,-183.818c130.017,13.462 255.559,35.869 381.101,71.738c210.72,53.804 416.967,138.982 600.786,251.084l44.836,22.407l0,49.331c0,457.31 -121.069,883.245 -336.262,1255.38c-219.688,381.099 -538.037,699.427 -919.114,919.114l-44.836,26.902l-40.364,-26.902Z" style="fill:#186dee;fill-rule:nonzero;"/><path d="M1067.06,1443.69c-31.374,-4.495 -246.589,201.753 26.902,538.015c-49.309,-174.851 -71.738,-354.196 -26.902,-538.015Z" style="fill:#186dee;"/><path d="M1215.03,1739.61c-35.869,4.473 -201.775,246.59 130.015,524.554c-80.706,-161.389 -138.982,-331.768 -130.015,-524.554Z" style="fill:#186dee;"/><path d="M1371.95,1936.87c17.934,156.938 264.524,354.196 183.818,618.72c-22.407,-183.818 -228.655,-461.782 -183.818,-618.72Z" style="fill:#186dee;"/><path d="M2062.41,1443.69c31.374,-4.495 246.589,201.753 -26.902,538.015c49.309,-174.851 71.738,-354.196 26.902,-538.015Z" style="fill:#186dee;"/><path d="M1914.46,1739.61c35.869,4.473 201.753,246.59 -130.039,524.554c80.707,-161.389 139.006,-331.768 130.039,-524.554Z" style="fill:#186dee;"/><path d="M1739.59,1936.87c-17.934,156.938 -264.524,354.196 -183.818,618.72c22.429,-183.818 228.653,-461.782 183.818,-618.72Z" style="fill:#186dee;"/></g></svg>