<?xml version="1.0" encoding="UTF-8" standalone="no"?><!DOCTYPE svg PUBLIC "-//W3C//DTD SVG 1.1//EN" "http://www.w3.org/Graphics/SVG/1.1/DTD/svg11.dtd"><svg width="100%" height="100%" viewBox="0 0 3125 3125" version="1.1" xmlns="http://www.w3.org/2000/svg" xmlns:xlink="http://www.w3.org/1999/xlink" xml:space="preserve" xmlns:serif="http://www.serif.com/" style="fill-rule:evenodd;clip-rule:evenodd;stroke-linejoin:round;stroke-miterlimit:2;"><g><g><path d="M1651.07,532.753l0,2592.25c-347.313,-200.466 -627.947,-486.04 -821.717,-821.67c-193.769,-335.677 -300.77,-721.469 -300.77,-1122.5l1122.49,-648.075Z" style="fill:#fff;fill-rule:nonzero;"/><path d="M1654.11,529.842l0,1708.14c-228.866,-132.124 -413.803,-320.285 -541.463,-541.458c-127.708,-221.178 -198.186,-475.392 -198.186,-739.646l739.649,-427.034Z" style="fill:#fff;fill-rule:nonzero;"/><path d="M1654.11,0l0,534.406l-1.282,-0.755l-0.428,-0.252l-0.474,0.252l-60.743,35.073l-97.788,56.474l-47.73,27.55l-159.29,91.936l-206.308,119.102l-159.291,91.965l-206.212,119.097l-159.338,91.97l-206.26,119.097l-0,-534.377l206.26,-119.098l-0,311.258l159.338,-91.97l-0,-311.281l206.212,-119.068l0,311.252l159.291,-91.965l-0,-311.286l206.308,-119.068l0,311.252l159.29,-91.936l-0,-311.285l207.163,-117.616l1.282,-0.727Z" style="fill:#fff;fill-rule:nonzero;"/><path d="M2021.85,210.312l0,311.252l-159.338,-91.936l159.338,-219.316Z" style="fill:#fff;fill-rule:nonzero;"/><path d="M2387.4,421.379l-0,311.252l-159.29,-91.965l159.29,-219.287Z" style="fill:#fff;fill-rule:nonzero;"/><path d="M2753,632.44l-0,311.258l-159.337,-91.97l159.337,-219.288Z" style="fill:#fff;fill-rule:nonzero;"/></g></g></svg>