<?xml version="1.0" encoding="UTF-8" standalone="no"?><!DOCTYPE svg PUBLIC "-//W3C//DTD SVG 1.1//EN" "http://www.w3.org/Graphics/SVG/1.1/DTD/svg11.dtd"><svg width="100%" height="100%" viewBox="0 0 3125 3125" version="1.1" xmlns="http://www.w3.org/2000/svg" xmlns:xlink="http://www.w3.org/1999/xlink" xml:space="preserve" xmlns:serif="http://www.serif.com/" style="fill-rule:evenodd;clip-rule:evenodd;stroke-linejoin:round;stroke-miterlimit:2;"><path d="M1678.41,2862.13l-115.912,262.868l-115.911,-262.868l-0,-1889.69l-346.568,69.575l76.497,-254.901l385.982,-76.194l385.983,76.194l76.496,254.901l-346.567,-69.575l-0,1889.69Zm-620.844,-2051.13l-549.638,110.338l-0,813.653c-0,365.601 209.067,638.468 443.324,830.112c128.647,105.247 257.657,182.327 393.004,249.146l0,-266.43c-83.518,-47.483 -164.602,-100.378 -243.734,-165.105c-188.524,-154.219 -356.747,-369.383 -356.747,-647.723l-0,-621.407l237.335,-47.664l76.456,-254.92Zm465.658,-633.439l-47.846,455.356l87.12,-17.021l87.12,17.021l-47.846,-455.356c31.81,-14.788 53.862,-47.06 53.862,-84.464c-0,-51.406 -41.689,-93.095 -93.136,-93.095c-51.447,-0 -93.135,41.689 -93.135,93.095c-0,37.404 22.051,69.676 53.861,84.464Zm544.206,633.439l549.638,110.338l0,813.653c0,365.601 -209.067,638.468 -443.324,830.112c-128.647,105.247 -257.657,182.327 -393.004,249.146l-0,-266.43c83.518,-47.483 164.602,-100.378 243.714,-165.105c188.544,-154.219 356.767,-369.383 356.767,-647.723l0,-621.407l-237.335,-47.664l-76.456,-254.92Z" style="fill:#095;fill-rule:nonzero;"/></svg>