<?xml version="1.0" encoding="UTF-8" standalone="no"?><!DOCTYPE svg PUBLIC "-//W3C//DTD SVG 1.1//EN" "http://www.w3.org/Graphics/SVG/1.1/DTD/svg11.dtd"><svg width="100%" height="100%" viewBox="0 0 5080 1000" version="1.1" xmlns="http://www.w3.org/2000/svg" xmlns:xlink="http://www.w3.org/1999/xlink" xml:space="preserve" xmlns:serif="http://www.serif.com/" style="fill-rule:evenodd;clip-rule:evenodd;stroke-linejoin:round;stroke-miterlimit:2;"><g><path d="M2434.02,170.481l-0,829.519c111.14,-64.149 200.943,-155.533 262.949,-262.934c62.007,-107.417 96.247,-230.871 96.247,-359.201l-359.196,-207.384Z" style="fill:#fff;fill-rule:nonzero;"/><g><path d="M2433.23,170.481l0,829.519c-111.135,-64.149 -200.94,-155.533 -262.951,-262.934c-62.009,-107.417 -96.245,-230.871 -96.245,-359.201l359.196,-207.384Z" style="fill:#151515;fill-rule:nonzero;"/><path d="M2434.2,169.55l0,546.604c-73.236,-42.28 -132.411,-102.492 -173.271,-173.267c-40.861,-70.777 -63.42,-152.125 -63.42,-236.687l236.691,-136.65Z" style="fill:#151515;fill-rule:nonzero;"/><path d="M2434.2,0l0,171.01l-0.41,-0.242l-0.137,-0.08l-0.152,0.08l-19.438,11.224l-31.298,18.071l-15.269,8.816l-50.973,29.42l-66.011,38.113l-50.973,29.428l-66.001,38.112l-50.982,29.43l-66.002,38.111l-0,-171.001l66.002,-38.111l-0,99.602l50.982,-29.43l-0,-99.61l66.001,-38.102l0,99.601l50.973,-29.429l0,-99.611l66.011,-38.102l0,99.601l50.973,-29.42l0,-99.611l66.294,-37.637l0.41,-0.233Z" style="fill:#151515;fill-rule:nonzero;"/><path d="M2551.88,67.3l0,99.601l-50.972,-29.42l18.419,-25.374l32.553,-44.807Z" style="fill:#151515;fill-rule:nonzero;"/><path d="M2668.86,134.841l-0,99.601l-50.973,-29.429l50.973,-70.172Z" style="fill:#151515;fill-rule:nonzero;"/><path d="M2785.85,202.381l0,99.602l-50.988,-29.43l50.988,-70.172Z" style="fill:#151515;fill-rule:nonzero;"/></g></g><g><path d="M532.281,407.459l1.438,0c1.431,0 2.869,1.439 4.301,1.439c25.825,8.608 126.252,51.644 104.734,150.647c-25.826,114.774 -210.907,249.642 -226.686,335.721l-1.431,-0c-15.786,-86.079 -202.299,-220.947 -226.686,-335.721c-25.826,-113.343 110.473,-152.086 110.473,-152.086c1.431,-1.431 -7.177,104.735 50.214,116.213c21.518,-1.431 34.434,-12.909 48.782,-20.087c-5.74,-2.869 -12.917,-7.17 -20.087,-14.347c25.826,7.177 51.651,7.177 76.039,-0c-7.177,7.177 -14.348,11.478 -21.525,14.347c18.655,7.178 34.434,24.395 57.391,25.826c37.303,-7.17 44.481,-55.952 45.912,-88.948c-1.431,-11.479 -1.431,-21.526 -2.869,-33.004Zm-116.213,130.561c5.739,-0 15.779,2.869 24.388,11.478c14.347,11.478 28.695,10.047 28.695,10.047c-5.739,14.34 -31.565,20.079 -51.645,4.3c-21.525,14.348 -45.912,10.04 -54.521,-4.3c0,-0 14.348,1.431 28.695,-10.047c8.609,-8.609 18.649,-11.478 24.388,-11.478Z" style="fill:#186dee;"/><path d="M576.755,347.199c55.959,8.609 90.387,24.395 90.387,40.174c-0,30.133 -113.343,53.09 -252.505,53.09c-139.169,-0 -251.081,-22.957 -251.081,-53.09c0,-15.779 34.435,-31.565 88.956,-40.174c10.04,1.438 18.648,2.87 28.695,4.308l-2.869,7.17l274.029,0l-4.307,-7.17c10.046,-1.438 20.086,-2.87 28.695,-4.308Z" style="fill:#186dee;"/><path d="M398.851,358.677l-120.513,0l2.869,-7.17c34.427,4.301 74.601,7.17 117.644,7.17Zm149.209,-7.17l4.307,7.17l-121.951,0c43.043,0 83.216,-2.869 117.644,-7.17Zm-147.771,-314.203l94.688,-37.304l-48.782,83.216l-12.91,7.171l17.217,1.438l78.909,208.03c-34.434,4.308 -73.17,5.74 -114.774,5.74c-40.174,-0 -78.916,-1.432 -113.343,-5.74l98.995,-262.551Z" style="fill:#186dee;"/><path d="M401.72,991.391c-121.951,-70.3 -223.816,-172.164 -295.554,-294.116c-67.431,-119.082 -106.166,-255.381 -106.166,-401.72l0,-15.786l12.909,-7.171c60.261,-35.872 124.822,-63.129 193.69,-80.346c38.735,-11.479 78.909,-18.649 120.514,-22.957l-30.127,58.822c-25.826,4.308 -51.652,10.047 -76.039,17.217c-58.822,15.786 -114.781,37.304 -166.426,66c2.87,130.56 38.735,252.511 98.995,358.684c63.123,109.035 153.517,200.86 261.121,266.852c107.604,-65.992 197.99,-157.817 261.113,-266.852c61.699,-106.173 97.564,-228.124 100.434,-358.684c-53.083,-28.696 -107.604,-50.214 -166.426,-66c-25.826,-7.17 -50.22,-12.909 -76.039,-17.217l-31.566,-58.822c41.606,4.308 81.779,11.478 121.953,22.957c67.43,17.217 133.429,44.474 192.251,80.346l14.348,7.171l-0,15.786c-0,146.339 -38.742,282.638 -107.604,401.72c-70.3,121.952 -172.172,223.816 -294.117,294.116l-14.347,8.609l-12.917,-8.609Z" style="fill:#186dee;fill-rule:nonzero;"/><path d="M256.813,461.98c-10.04,-1.438 -78.909,64.561 8.608,172.165c-15.779,-55.952 -22.956,-113.343 -8.608,-172.165Z" style="fill:#186dee;"/><path d="M304.163,556.675c-11.478,1.431 -64.568,78.909 41.605,167.857c-25.826,-51.644 -44.474,-106.166 -41.605,-167.857Z" style="fill:#186dee;"/><path d="M354.377,619.798c5.739,50.22 84.647,113.343 58.821,197.99c-7.17,-58.822 -73.169,-147.77 -58.821,-197.99Z" style="fill:#186dee;"/><path d="M575.323,461.98c10.04,-1.438 78.909,64.561 -8.608,172.165c15.779,-55.952 22.956,-113.343 8.608,-172.165Z" style="fill:#186dee;"/><path d="M527.98,556.675c11.478,1.431 64.561,78.909 -41.613,167.857c25.827,-51.644 44.482,-106.166 41.613,-167.857Z" style="fill:#186dee;"/><path d="M472.02,619.798c-5.739,50.22 -84.647,113.343 -58.822,197.99c7.178,-58.822 73.169,-147.77 58.822,-197.99Z" style="fill:#186dee;"/></g><path d="M1460.72,915.882l-37.092,84.118l-37.092,-84.118l0,-604.701l-110.901,22.264l24.478,-81.568l123.515,-24.382l123.514,24.382l24.479,81.568l-110.901,-22.264l-0,604.701Zm-198.67,-656.363l-175.885,35.308l0,260.369c0,116.993 66.902,204.31 141.864,265.636c41.167,33.679 82.45,58.345 125.761,79.727l0,-85.257c-26.725,-15.195 -52.672,-32.122 -77.994,-52.834c-60.328,-49.35 -114.16,-118.203 -114.16,-207.272l0,-198.85l75.948,-15.252l24.466,-81.575Zm149.01,-202.7l-15.311,145.714l27.879,-5.447l27.878,5.447l-15.31,-145.714c10.179,-4.732 17.235,-15.059 17.235,-27.028c0,-16.451 -13.34,-29.791 -29.803,-29.791c-16.463,-0 -29.804,13.34 -29.804,29.791c0,11.969 7.057,22.296 17.236,27.028Zm174.146,202.7l175.884,35.308l0,260.369c0,116.993 -66.901,204.31 -141.863,265.636c-41.168,33.679 -82.451,58.345 -125.762,79.727l0,-85.257c26.726,-15.195 52.673,-32.122 77.989,-52.834c60.334,-49.35 114.165,-118.203 114.165,-207.272l0,-198.85l-75.947,-15.252l-24.466,-81.575Z" style="fill:#095;fill-rule:nonzero;"/><path d="M4330.55,262.747l-26.394,8.399c22.395,14.797 45.191,22.395 68.585,23.395c-14.997,-8.598 -29.394,-18.597 -42.191,-31.794Zm459.709,-205.159c100.778,25.596 201.356,70.186 289.741,129.574c-11.6,117.177 -35.393,223.756 -71.385,319.934c-12.4,-21.192 -26.193,-40.392 -41.193,-57.986c-30.992,-36.392 -67.585,-65.986 -106.778,-91.781c38.193,43.991 67.786,91.781 84.786,144.367c11.392,35 17.192,72.185 16.592,111.978c-53.185,103.985 -122.77,194.363 -208.355,271.548c-14.2,-41.992 -11.4,-80.985 -0.8,-117.578c31.592,-108.977 131.57,-197.355 58.785,-282.34c54.992,123.577 -132.171,208.955 -193.363,385.918c-13.193,38.193 -20.593,80.585 -18.193,128.778c-97.58,-60.185 -180.763,-131.37 -249.55,-214.556c12.398,-24.6 27.595,-47.792 45.991,-68.985c19.396,-22.4 42.391,-42.592 70.186,-60.392c-21.796,-6.6 -45.991,-10.393 -74.185,-10.193c28.194,-19 57.388,-32.6 86.782,-43.793c45.591,5.4 89.184,17.593 128.976,41.593c-17.2,-25.6 -39.192,-46.593 -68.788,-61.593c33.196,-9.992 65.788,-18.792 97.381,-30.192c19.792,9.2 38.392,20.6 54.993,34.392c-7.001,-15.992 -16.2,-30.992 -28.401,-44.992c6.4,-2.8 12.8,-5.593 19.2,-8.793c21.193,-10.6 34.393,-24 40.393,-38.992c12.193,3.6 22.593,8.792 32.593,14.792c-7.4,-13.192 -17.2,-24.392 -28.793,-33.792c0.2,-30.193 -25.2,-62.986 -71.593,-86.782c29.8,-5.198 60.793,-4.199 93.386,6.199c-35.993,-39.192 -81.785,-64.587 -138.571,-74.985c17.793,-16.797 36.993,-32.593 58.385,-46.79c-29.792,2.799 -57.985,8.598 -85.185,17.396l35.593,2.199l-44.985,38.393c33.392,5.399 64.185,14.397 89.577,29.394c-101.377,25.595 -159.565,49.191 -78.985,67.387c-63.984,34.792 -116.374,81.581 -53.986,94.981c-46.991,30.793 -85.783,27.193 -119.576,0.6c13.197,0 26.395,-1.4 39.592,-5c-10.598,-7.6 -19.396,-18.192 -26.595,-31.792c14.797,3.8 29.594,5.6 44.391,5.6l-10.598,-15.6c32.994,-36.791 -16.796,-80.983 80.585,-100.579c-66.188,-34.593 -99.381,-14.397 -163.968,17.796l-23.395,-12.797c4.599,17.397 10.598,33.593 18.796,48.39c-20.995,-8.398 -41.792,-18.596 -62.187,-32.193c3.599,15.597 6.798,28.594 9.998,39.992c-37.793,-19.596 -67.187,-51.79 -85.583,-98.98c70.786,32.393 97.98,-11.198 150.57,6.398c-4.599,-7.598 -10.998,-14.197 -19.996,-18.396c14.997,-9.398 29.594,-19.397 44.991,-28.194c20.795,-11.398 46.39,1 63.387,-31.994c7.199,-14.197 15.197,-26.994 28.594,-37.792c-26.995,3.599 -43.791,13.197 -67.986,46.79c-21.796,30.594 -61.988,5.799 -97.78,-27.994c97.18,3.799 117.176,-96.381 209.957,-131.974c-10.197,14.997 -19.196,30.394 -25.594,46.791c44.991,-29.195 96.183,-50.99 145.368,-75.985c-21.392,-1.799 -42.592,-2.999 -63.585,-2.999c-35.992,-0 -72.585,2.999 -109.378,8.598l-6.599,34.793c-23.195,19.596 -44.391,45.391 -69.586,59.188c15.597,-33.993 38.992,-62.387 61.188,-91.782c-106.979,18.197 -213.557,58.189 -303.34,110.378c23.796,187.563 87.583,351.73 201.56,487.3c-18.796,19 -35.392,39.393 -48.99,61.993c-113.577,-150.771 -182.763,-337.935 -204.958,-565.489c144.77,-97.381 323.334,-154.57 479.903,-154.57c42.993,0 87.585,4.2 132.571,12.398c19.4,-12.998 37.392,-27.795 53.792,-44.791c-2.2,20.196 -9.2,36.993 -19,51.79c-10.392,15.797 -24.392,28.994 -39.785,41.392c-44.993,35.992 -103.785,63.387 -132.978,114.977c30.193,-13.198 62.985,-21.796 98.378,-26.195l-57.785,-5l17.2,-14.997c49.185,-12.997 99.378,-18.796 150.17,-19.995c-23.4,9.398 -45.992,19.795 -67.792,31.793c82.185,16.797 150.57,51.39 206.363,102.179c-31.993,-7.398 -64.586,-11.197 -97.186,-10.597c62.593,26.195 111.578,64.387 147.371,114.177c16.8,-56.188 28.8,-114.977 36.592,-176.565c-79.777,-46.19 -172.763,-82.983 -267.54,-103.379c11.992,-12.398 22.192,-26.395 30.192,-41.992Z" style="fill:#db4733;fill-rule:nonzero;"/><g><path d="M3704.21,571.715l-11.702,-101.24l5.593,-86.974l-107.007,35.433l84.254,-40.269l0,-17.716c0,-125.635 -130.417,-174.718 -130.417,-174.718l-43.109,100.035l47.536,-225.027l-92.854,-61.239l-92.855,61.239l47.536,225.027l-43.109,-100.035c0,0 -130.417,49.083 -130.417,174.718l0,17.716l84.255,40.269l-107.008,-35.433l5.593,86.974l-11.701,101.24l25.74,-20.489l-23.075,104.643c0,0 37.201,94.811 165.14,193.868l4.602,-270.54l-109.218,-58.788l-5.653,-69.867l170.256,48.319l-19.303,130.457l39.217,36.243l39.217,-36.243l-19.304,-130.457l170.257,-48.319l-5.653,69.867l-109.218,58.788l4.601,270.54c127.939,-99.057 165.14,-193.868 165.14,-193.868l-23.075,-104.643l25.741,20.489Z" style="fill:#ffba03;fill-rule:nonzero;"/><path d="M3864.32,251.302l-8.674,-8.004c-5.244,-4.836 -109.593,-99.303 -279.843,-132.369l-10.67,42.932c7.455,3.929 16.866,9.307 27.241,16.154c114.523,28.4 192.896,85.433 218.021,105.628l0.006,20.569c0,312.436 -117.952,528.789 -350.574,643.05l-2.271,1.253c-0.254,0.147 -0.609,0.348 -1.051,0.576c-0.429,-0.221 -0.777,-0.415 -1.018,-0.556l-2.305,-1.273c-232.622,-114.261 -350.574,-330.681 -350.574,-643.23l0.007,-20.382c25.151,-20.222 103.458,-77.162 217.927,-105.575c10.415,-6.875 19.859,-12.274 27.334,-16.214l-10.67,-42.932c-170.25,33.066 -274.598,127.533 -279.843,132.369l-8.674,8.004l-0.007,44.723c0,54.294 0,181.436 48.876,319.194c59.606,167.986 170.927,293.132 330.902,371.981c5.881,3.389 14.816,7.227 17.582,8.393l10.463,4.407l10.462,-4.407c2.766,-1.166 11.701,-5.004 17.582,-8.393c159.916,-78.822 271.237,-204.142 330.902,-372.503c48.876,-137.913 48.876,-269.1 48.876,-318.485l-0.007,-44.91Z" style="fill:#ffba03;fill-rule:nonzero;"/></g></svg>