<?xml version="1.0" encoding="UTF-8" standalone="no"?>
<!DOCTYPE svg PUBLIC "-//W3C//DTD SVG 1.1//EN" "http://www.w3.org/Graphics/SVG/1.1/DTD/svg11.dtd">
<svg width="100%" height="100%" viewBox="0 0 5080 1000" version="1.1" xmlns="http://www.w3.org/2000/svg" xmlns:xlink="http://www.w3.org/1999/xlink" xml:space="preserve" xmlns:serif="http://www.serif.com/" style="fill-rule:evenodd;clip-rule:evenodd;stroke-linejoin:round;stroke-miterlimit:2;">
    <g transform="matrix(0.701597,0,0,0.701597,-31.9021,-709.146)">
        <path d="M2132.87,1591.52L2134.92,1591.52C2136.96,1591.52 2139.01,1593.57 2141.05,1593.57C2177.86,1605.84 2321,1667.18 2290.33,1808.29C2253.52,1971.88 1989.72,2164.11 1967.23,2286.8L1965.19,2286.8C1942.69,2164.11 1676.85,1971.88 1642.09,1808.29C1605.28,1646.74 1799.55,1591.52 1799.55,1591.52C1801.59,1589.48 1789.32,1740.8 1871.12,1757.16C1901.79,1755.12 1920.2,1738.76 1940.65,1728.53C1932.47,1724.44 1922.24,1718.31 1912.02,1708.08C1948.83,1718.31 1985.64,1718.31 2020.4,1708.08C2010.17,1718.31 1999.95,1724.44 1989.72,1728.53C2016.31,1738.76 2038.8,1763.3 2071.52,1765.34C2124.69,1755.12 2134.92,1685.59 2136.96,1638.56C2134.92,1622.2 2134.92,1607.88 2132.87,1591.52ZM1967.23,1777.61C1975.41,1777.61 1989.72,1781.7 2001.99,1793.97C2022.44,1810.33 2042.89,1808.29 2042.89,1808.29C2034.71,1828.73 1997.9,1836.91 1969.28,1814.42C1938.6,1834.87 1903.84,1828.73 1891.57,1808.29C1891.57,1808.29 1912.02,1810.33 1932.47,1793.97C1944.74,1781.7 1959.05,1777.61 1967.23,1777.61Z" style="fill:rgb(24,109,238);"/>
        <path d="M2196.26,1505.63C2276.02,1517.9 2325.09,1540.4 2325.09,1562.89C2325.09,1605.84 2163.54,1638.56 1965.19,1638.56C1766.83,1638.56 1607.32,1605.84 1607.32,1562.89C1607.32,1540.4 1656.4,1517.9 1734.11,1505.63C1748.42,1507.68 1760.69,1509.72 1775.01,1511.77L1770.92,1521.99L2161.5,1521.99L2155.36,1511.77C2169.68,1509.72 2183.99,1507.68 2196.26,1505.63Z" style="fill:rgb(24,109,238);"/>
        <path d="M1942.69,1521.99L1770.92,1521.99L1775.01,1511.77C1824.08,1517.9 1881.34,1521.99 1942.69,1521.99ZM2155.36,1511.77L2161.5,1521.99L1987.68,1521.99C2049.03,1521.99 2106.29,1517.9 2155.36,1511.77ZM1944.74,1063.93L2079.7,1010.76L2010.17,1129.37L1991.77,1139.59L2016.31,1141.64L2128.78,1438.15C2079.7,1444.29 2024.49,1446.33 1965.19,1446.33C1907.93,1446.33 1852.71,1444.29 1803.64,1438.15L1944.74,1063.93Z" style="fill:rgb(24,109,238);"/>
        <path d="M1946.78,2423.81C1772.96,2323.61 1627.77,2178.42 1525.52,2004.6C1429.41,1834.87 1374.2,1640.6 1374.2,1432.02L1374.2,1409.52L1392.6,1399.3C1478.49,1348.17 1570.51,1309.32 1668.67,1284.78C1723.88,1268.42 1781.14,1258.2 1840.44,1252.06L1797.5,1335.9C1760.69,1342.04 1723.88,1350.22 1689.12,1360.44C1605.28,1382.94 1525.52,1413.61 1451.91,1454.51C1456,1640.6 1507.12,1814.42 1593.01,1965.75C1682.98,2121.16 1811.82,2252.04 1965.19,2346.1C2118.56,2252.04 2247.39,2121.16 2337.36,1965.75C2425.3,1814.42 2476.42,1640.6 2480.51,1454.51C2404.85,1413.61 2327.14,1382.94 2243.3,1360.44C2206.49,1350.22 2171.72,1342.04 2134.92,1335.9L2089.93,1252.06C2149.23,1258.2 2206.49,1268.42 2263.75,1284.78C2359.86,1309.32 2453.93,1348.17 2537.77,1399.3L2558.22,1409.52L2558.22,1432.02C2558.22,1640.6 2503,1834.87 2404.85,2004.6C2304.65,2178.42 2159.45,2323.61 1985.64,2423.81L1965.19,2436.08L1946.78,2423.81Z" style="fill:rgb(24,109,238);fill-rule:nonzero;"/>
        <path d="M1740.24,1669.23C1725.93,1667.18 1627.77,1761.25 1752.51,1914.62C1730.02,1834.87 1719.79,1753.07 1740.24,1669.23Z" style="fill:rgb(24,109,238);"/>
        <path d="M1807.73,1804.2C1791.37,1806.24 1715.7,1916.67 1867.03,2043.45C1830.22,1969.84 1803.64,1892.13 1807.73,1804.2Z" style="fill:rgb(24,109,238);"/>
        <path d="M1879.3,1894.17C1887.48,1965.75 1999.95,2055.72 1963.14,2176.37C1952.92,2092.53 1858.85,1965.75 1879.3,1894.17Z" style="fill:rgb(24,109,238);"/>
        <path d="M2194.22,1669.23C2208.53,1667.18 2306.69,1761.25 2181.95,1914.62C2204.44,1834.87 2214.67,1753.07 2194.22,1669.23Z" style="fill:rgb(24,109,238);"/>
        <path d="M2126.74,1804.2C2143.1,1806.24 2218.76,1916.67 2067.43,2043.45C2104.24,1969.84 2130.83,1892.13 2126.74,1804.2Z" style="fill:rgb(24,109,238);"/>
        <path d="M2046.98,1894.17C2038.8,1965.75 1926.33,2055.72 1963.14,2176.37C1973.37,2092.53 2067.43,1965.75 2046.98,1894.17Z" style="fill:rgb(24,109,238);"/>
    </g>
    <g transform="matrix(1.51976,0,0,1.51976,-2150.72,-962.608)">
        <g>
            <path d="M3018.65,745.569L3018.65,1291.39C2945.52,1249.18 2886.43,1189.05 2845.63,1118.38C2804.83,1047.7 2782.3,966.468 2782.3,882.027L3018.65,745.569Z" style="fill:white;fill-rule:nonzero;"/>
            <path d="M3019.29,744.956L3019.29,1104.62C2971.1,1076.8 2932.16,1037.18 2905.28,990.611C2878.39,944.04 2863.55,890.513 2863.55,834.872L3019.29,744.956Z" style="fill:white;fill-rule:nonzero;"/>
            <path d="M3019.29,633.393L3019.29,745.917L3019.02,745.758L3018.93,745.705L3018.83,745.758L3006.04,753.143L2985.45,765.034L2975.4,770.835L2941.86,790.193L2898.42,815.271L2864.88,834.635L2821.46,859.712L2787.91,879.077L2744.48,904.154L2744.48,791.636L2787.91,766.559L2787.91,832.097L2821.46,812.732L2821.46,747.189L2864.88,722.118L2864.88,787.655L2898.42,768.291L2898.42,702.747L2941.86,677.676L2941.86,743.213L2975.4,723.855L2975.4,658.311L3019.02,633.546L3019.29,633.393Z" style="fill:white;fill-rule:nonzero;"/>
            <path d="M3096.72,677.676L3096.72,743.213L3063.17,723.855L3096.72,677.676Z" style="fill:white;fill-rule:nonzero;"/>
            <path d="M3173.69,722.118L3173.69,787.655L3140.15,768.291L3173.69,722.118Z" style="fill:white;fill-rule:nonzero;"/>
            <path d="M3250.67,766.559L3250.67,832.097L3217.12,812.732L3250.67,766.559Z" style="fill:white;fill-rule:nonzero;"/>
        </g>
    </g>
    <g transform="matrix(0.64384,0,0,0.64384,-1272.14,-1109.6)">
        <path d="M2557.61,3145.94L2500,3276.59L2442.39,3145.94L2442.39,2206.73L2270.14,2241.31L2308.16,2114.62L2500,2076.75L2691.84,2114.62L2729.86,2241.31L2557.61,2206.73L2557.61,3145.94ZM2249.04,2126.49L1975.86,2181.33L1975.86,2585.73C1975.86,2767.44 2079.77,2903.06 2196.2,2998.31C2260.14,3050.62 2324.26,3088.93 2391.53,3122.14L2391.53,2989.72C2350.02,2966.12 2309.72,2939.83 2270.39,2907.66C2176.69,2831.01 2093.08,2724.07 2093.08,2585.73L2093.08,2276.88L2211.04,2253.19L2249.04,2126.49ZM2480.48,1811.66L2456.7,2037.98L2500,2029.52L2543.3,2037.98L2519.52,1811.66C2535.33,1804.31 2546.29,1788.27 2546.29,1769.68C2546.29,1744.13 2525.57,1723.41 2500,1723.41C2474.43,1723.41 2453.71,1744.13 2453.71,1769.68C2453.71,1788.27 2464.67,1804.31 2480.48,1811.66ZM2750.96,2126.49L3024.14,2181.33L3024.14,2585.73C3024.14,2767.44 2920.23,2903.06 2803.8,2998.31C2739.86,3050.62 2675.74,3088.93 2608.47,3122.14L2608.47,2989.72C2649.98,2966.12 2690.28,2939.83 2729.6,2907.66C2823.31,2831.01 2906.92,2724.07 2906.92,2585.73L2906.92,2276.88L2788.96,2253.19L2750.96,2126.49Z" style="fill:rgb(0,153,85);fill-rule:nonzero;"/>
    </g>
    <g transform="matrix(0.740741,0,0,0.740741,3822.12,-277.778)">
        <path d="M686.383,729.709L650.75,741.047C680.984,761.023 711.758,771.281 743.341,772.63C723.095,761.023 703.659,747.525 686.383,729.709ZM1306.99,452.744C1443.04,487.298 1578.82,547.495 1698.14,627.669C1682.48,785.858 1650.36,929.739 1601.77,1059.58C1585.03,1030.97 1566.41,1005.05 1546.16,981.299C1504.32,932.169 1454.92,892.217 1402.01,857.394C1453.57,916.782 1493.52,981.299 1516.47,1052.29C1531.85,1099.54 1539.68,1149.74 1538.87,1203.46C1467.07,1343.84 1373.13,1465.85 1257.59,1570.05C1238.42,1513.36 1242.2,1460.72 1256.51,1411.32C1299.16,1264.2 1434.13,1144.89 1335.87,1030.16C1410.11,1196.99 1157.44,1312.25 1074.83,1551.15C1057.02,1602.71 1047.03,1659.94 1050.27,1725C918.536,1643.75 806.239,1547.65 713.377,1435.35C730.114,1402.14 750.63,1370.83 775.465,1342.22C801.65,1311.98 832.693,1284.72 870.216,1260.69C840.792,1251.78 808.128,1246.66 770.066,1246.93C808.128,1221.28 847.54,1202.92 887.222,1187.81C948.77,1195.1 1007.62,1211.56 1061.34,1243.96C1038.12,1209.4 1008.43,1181.06 968.476,1160.81C1013.29,1147.32 1057.29,1135.44 1099.94,1120.05C1126.66,1132.47 1151.77,1147.86 1174.18,1166.48C1164.73,1144.89 1152.31,1124.64 1135.84,1105.74C1144.48,1101.96 1153.12,1098.19 1161.76,1093.87C1190.37,1079.56 1208.19,1061.47 1216.29,1041.23C1232.75,1046.09 1246.79,1053.1 1260.29,1061.2C1250.3,1043.39 1237.07,1028.27 1221.42,1015.58C1221.69,974.82 1187.4,930.549 1124.77,898.425C1165,891.407 1206.84,892.756 1250.84,906.794C1202.25,853.884 1140.43,819.601 1063.77,805.564C1087.79,782.888 1113.71,761.563 1142.59,742.397C1102.37,746.176 1064.31,754.004 1027.59,765.882L1075.64,768.851L1014.91,820.681C1059.99,827.969 1101.56,840.117 1135.84,860.363C998.98,894.916 920.426,926.77 1029.21,951.335C942.831,998.305 872.105,1061.47 956.329,1079.56C892.891,1121.13 840.522,1116.27 794.901,1080.37C812.717,1080.37 830.534,1078.48 848.35,1073.62C834.043,1063.36 822.165,1049.06 812.447,1030.7C832.423,1035.83 852.399,1038.26 872.375,1038.26L858.068,1017.2C902.609,967.532 835.393,907.873 966.857,881.419C877.504,834.718 832.693,861.983 745.501,905.444L713.917,888.167C720.126,911.653 728.224,933.518 739.292,953.494C710.948,942.157 682.873,928.389 655.339,910.033C660.198,931.089 664.517,948.635 668.836,964.022C617.816,937.568 578.134,894.106 553.299,830.399C648.86,874.13 685.573,815.282 756.569,839.037C750.36,828.779 741.722,819.871 729.574,814.202C749.82,801.515 769.526,788.017 790.312,776.14C818.386,760.753 852.939,777.49 875.885,732.948C885.603,713.782 896.401,696.506 914.487,681.929C878.044,686.788 855.369,699.745 822.705,745.096C793.281,786.398 739.022,752.924 690.702,707.304C821.896,712.432 848.89,577.19 974.145,529.139C960.378,549.385 948.23,570.171 939.592,592.307C1000.33,552.894 1069.44,523.47 1135.84,489.727C1106.96,487.298 1078.34,485.678 1050,485.678C1001.41,485.678 952.01,489.727 902.339,497.286L893.431,544.256C862.117,570.711 833.503,605.534 799.49,624.16C820.546,578.269 852.129,539.937 882.093,500.255C737.672,524.82 593.791,578.809 472.585,649.265C504.709,902.475 590.822,1124.1 744.691,1307.12C719.316,1332.77 696.911,1360.3 678.554,1390.81C525.225,1187.27 431.824,934.598 401.86,627.4C597.3,495.936 838.362,418.731 1049.73,418.731C1107.77,418.731 1167.97,424.4 1228.7,435.468C1254.89,417.921 1279.18,397.945 1301.32,375C1298.35,402.265 1288.9,424.94 1275.67,444.916C1261.64,466.242 1242.74,484.058 1221.96,500.795C1161.22,549.385 1081.85,586.368 1042.44,656.014C1083.2,638.197 1127.47,626.59 1175.25,620.651L1097.24,613.902L1120.46,593.656C1186.86,576.11 1254.62,568.281 1323.19,566.662C1291.6,579.349 1261.1,593.386 1231.67,609.583C1342.62,632.258 1434.94,678.959 1510.26,747.525C1467.07,737.537 1423.07,732.409 1379.06,733.218C1463.56,768.581 1529.69,820.141 1578.01,887.357C1600.69,811.503 1616.89,732.139 1627.41,648.995C1519.71,586.638 1394.18,536.968 1266.23,509.433C1282.42,492.696 1296.19,473.8 1306.99,452.744Z" style="fill:rgb(219,71,51);fill-rule:nonzero;"/>
    </g>
    <g transform="matrix(0.669802,0,0,0.669802,1780.16,-504.703)">
        <path d="M2869.82,1607.07L2852.35,1455.92L2860.7,1326.07L2700.94,1378.97L2826.73,1318.85L2826.73,1292.4C2826.73,1104.83 2632.02,1031.55 2632.02,1031.55L2567.66,1180.9L2638.63,844.94L2500,753.511L2361.37,844.94L2432.34,1180.9L2367.98,1031.55C2367.98,1031.55 2173.27,1104.83 2173.27,1292.4L2173.27,1318.85L2299.06,1378.97L2139.3,1326.07L2147.65,1455.92L2130.18,1607.07L2168.61,1576.48L2134.16,1732.71C2134.16,1732.71 2189.7,1874.26 2380.71,2022.15L2387.58,1618.24L2224.52,1530.47L2216.08,1426.16L2470.27,1498.3L2441.45,1693.07L2500,1747.18L2558.55,1693.07L2529.73,1498.3L2783.92,1426.16L2775.48,1530.47L2612.42,1618.24L2619.29,2022.15C2810.3,1874.26 2865.84,1732.71 2865.84,1732.71L2831.39,1576.48L2869.82,1607.07Z" style="fill:rgb(255,186,3);fill-rule:nonzero;"/>
        <path d="M3108.86,1128.7L3095.91,1116.75C3088.08,1109.53 2932.29,968.493 2678.11,919.125L2662.18,983.222C2673.31,989.088 2687.36,997.118 2702.85,1007.34C2873.83,1049.74 2990.84,1134.89 3028.35,1165.04L3028.36,1195.75C3028.36,1662.21 2852.26,1985.22 2504.96,2155.81L2501.57,2157.68C2501.19,2157.9 2500.66,2158.2 2500,2158.54C2499.36,2158.21 2498.84,2157.92 2498.48,2157.71L2495.04,2155.81C2147.74,1985.22 1971.64,1662.11 1971.64,1195.48L1971.65,1165.05C2009.2,1134.86 2126.11,1049.85 2297.01,1007.43C2312.56,997.165 2326.66,989.104 2337.82,983.222L2321.89,919.125C2067.71,968.493 1911.92,1109.53 1904.09,1116.75L1891.14,1128.7L1891.13,1195.47C1891.13,1276.53 1891.13,1466.35 1964.1,1672.02C2053.09,1922.82 2219.29,2109.66 2458.13,2227.38C2466.91,2232.44 2480.25,2238.17 2484.38,2239.91L2500,2246.49L2515.62,2239.91C2519.75,2238.17 2533.09,2232.44 2541.87,2227.38C2780.62,2109.7 2946.82,1922.6 3035.9,1671.24C3108.87,1465.34 3108.87,1269.48 3108.87,1195.75L3108.86,1128.7Z" style="fill:rgb(255,186,3);fill-rule:nonzero;"/>
    </g>
</svg>
