<?xml version="1.0" encoding="UTF-8" standalone="no"?><!DOCTYPE svg PUBLIC "-//W3C//DTD SVG 1.1//EN" "http://www.w3.org/Graphics/SVG/1.1/DTD/svg11.dtd"><svg width="100%" height="100%" viewBox="0 0 15875 3125" version="1.1" xmlns="http://www.w3.org/2000/svg" xmlns:xlink="http://www.w3.org/1999/xlink" xml:space="preserve" xmlns:serif="http://www.serif.com/" style="fill-rule:evenodd;clip-rule:evenodd;stroke-linejoin:round;stroke-miterlimit:2;"><g><path d="M1663.38,1273.31l4.494,-0c4.473,-0 8.968,4.494 13.44,4.494c80.706,26.902 394.539,161.389 327.295,470.772c-80.705,358.669 -659.084,780.132 -708.393,1049.13l-4.473,0c-49.331,-268.996 -632.183,-690.459 -708.394,-1049.13c-80.705,-354.197 345.23,-475.266 345.23,-475.266c4.472,-4.473 -22.429,327.295 156.916,363.163c67.244,-4.472 107.608,-40.341 152.444,-62.77c-17.934,-8.968 -40.364,-22.407 -62.771,-44.837c80.706,22.43 161.411,22.43 237.622,0c-22.429,22.43 -44.836,35.869 -67.265,44.837c58.298,22.429 107.607,76.233 179.345,80.705c116.575,-22.407 139.004,-174.851 143.477,-277.964c-4.473,-35.869 -4.473,-67.266 -8.967,-103.134Zm-363.164,408c17.934,0 49.309,8.967 76.211,35.869c44.836,35.87 89.672,31.397 89.672,31.397c-17.934,44.814 -98.64,62.749 -161.389,13.439c-67.265,44.837 -143.476,31.375 -170.378,-13.439c-0,-0 44.836,4.473 89.673,-31.397c26.901,-26.902 58.276,-35.869 76.211,-35.869Z" style="fill:#186dee;"/><path d="M1802.36,1085c174.873,26.902 282.458,76.233 282.458,125.542c0,94.168 -354.197,165.906 -789.077,165.906c-434.903,0 -784.627,-71.738 -784.627,-165.906c0,-49.309 107.608,-98.64 277.986,-125.542c31.375,4.495 58.277,8.968 89.673,13.463l-8.967,22.407l856.343,-0l-13.462,-22.407c31.396,-4.495 62.771,-8.968 89.673,-13.463Z" style="fill:#186dee;"/><path d="M1246.41,1120.87l-376.604,-0l8.967,-22.407c107.585,13.439 233.128,22.407 367.637,22.407Zm466.277,-22.407l13.462,22.407l-381.099,-0c134.509,-0 260.051,-8.968 367.637,-22.407Zm-461.783,-981.885l295.899,-116.575l-152.444,260.051l-40.342,22.408l53.804,4.494l246.589,650.095c-107.607,13.462 -228.654,17.935 -358.669,17.935c-125.542,0 -246.611,-4.473 -354.197,-17.935l309.36,-820.473Z" style="fill:#186dee;"/><path d="M1255.38,3098.1c-381.099,-219.687 -699.426,-538.015 -923.608,-919.114c-210.72,-372.131 -331.768,-798.066 -331.768,-1255.38l0,-49.331l40.342,-22.407c188.313,-112.102 390.066,-197.28 605.281,-251.084c121.047,-35.869 246.589,-58.276 376.604,-71.738l-94.146,183.818c-80.705,13.462 -161.411,31.397 -237.622,53.804c-183.818,49.331 -358.691,116.575 -520.08,206.248c8.967,408 121.047,789.098 309.36,1120.89c197.258,340.735 479.739,627.688 816.001,833.914c336.262,-206.226 618.72,-493.179 815.979,-833.914c192.808,-331.79 304.887,-712.888 313.855,-1120.89c-165.884,-89.673 -336.263,-156.917 -520.081,-206.248c-80.705,-22.407 -156.938,-40.342 -237.622,-53.804l-98.642,-183.818c130.017,13.462 255.559,35.869 381.101,71.738c210.72,53.804 416.967,138.982 600.786,251.084l44.836,22.407l0,49.331c0,457.31 -121.069,883.245 -336.262,1255.38c-219.688,381.099 -538.037,699.427 -919.114,919.114l-44.836,26.902l-40.364,-26.902Z" style="fill:#186dee;fill-rule:nonzero;"/><path d="M802.539,1443.69c-31.374,-4.495 -246.589,201.753 26.902,538.015c-49.309,-174.851 -71.738,-354.196 -26.902,-538.015Z" style="fill:#186dee;"/><path d="M950.51,1739.61c-35.869,4.473 -201.775,246.59 130.015,524.554c-80.706,-161.389 -138.982,-331.768 -130.015,-524.554Z" style="fill:#186dee;"/><path d="M1107.43,1936.87c17.934,156.938 264.524,354.196 183.818,618.72c-22.407,-183.818 -228.655,-461.782 -183.818,-618.72Z" style="fill:#186dee;"/><path d="M1797.89,1443.69c31.375,-4.495 246.589,201.753 -26.902,538.015c49.309,-174.851 71.738,-354.196 26.902,-538.015Z" style="fill:#186dee;"/><path d="M1649.94,1739.61c35.869,4.473 201.753,246.59 -130.039,524.554c80.708,-161.389 139.006,-331.768 130.039,-524.554Z" style="fill:#186dee;"/><path d="M1475.06,1936.87c-17.935,156.938 -264.524,354.196 -183.819,618.72c22.429,-183.818 228.653,-461.782 183.819,-618.72Z" style="fill:#186dee;"/></g><g><g><path d="M8037.59,532.753l0,2592.25c-347.312,-200.466 -627.947,-486.04 -821.717,-821.67c-193.769,-335.677 -300.77,-721.469 -300.77,-1122.5l1122.49,-648.075Z" style="fill:#fff;fill-rule:nonzero;"/><path d="M8040.63,529.842l-0,1708.14c-228.867,-132.124 -413.804,-320.285 -541.464,-541.458c-127.708,-221.178 -198.186,-475.392 -198.186,-739.646l739.65,-427.034Z" style="fill:#fff;fill-rule:nonzero;"/><path d="M8040.63,0l-0,534.406l-1.283,-0.755l-0.428,-0.252l-0.474,0.252l-60.743,35.073l-97.788,56.474l-47.73,27.55l-159.289,91.936l-206.309,119.102l-159.291,91.965l-206.212,119.097l-159.338,91.97l-206.26,119.097l-0,-534.377l206.26,-119.098l-0,311.258l159.338,-91.97l-0,-311.281l206.212,-119.068l0,311.252l159.291,-91.965l-0,-311.286l206.309,-119.068l-0,311.252l159.289,-91.936l-0,-311.285l207.163,-117.616l1.283,-0.727Z" style="fill:#fff;fill-rule:nonzero;"/><path d="M8408.37,210.312l-0,311.252l-159.338,-91.936l159.338,-219.316Z" style="fill:#fff;fill-rule:nonzero;"/><path d="M8773.92,421.379l0,311.252l-159.29,-91.965l159.29,-219.287Z" style="fill:#fff;fill-rule:nonzero;"/><path d="M9139.51,632.44l0,311.258l-159.337,-91.97l159.337,-219.288Z" style="fill:#fff;fill-rule:nonzero;"/></g></g><path d="M4564.76,2862.13l-115.912,262.868l-115.911,-262.868l-0,-1889.69l-346.567,69.575l76.496,-254.901l385.982,-76.194l385.983,76.194l76.496,254.901l-346.567,-69.575l0,1889.69Zm-620.843,-2051.13l-549.639,110.338l0,813.653c0,365.601 209.067,638.468 443.324,830.112c128.648,105.247 257.657,182.327 393.005,249.146l-0,-266.43c-83.518,-47.483 -164.602,-100.378 -243.734,-165.105c-188.525,-154.219 -356.748,-369.383 -356.748,-647.723l0,-621.407l237.336,-47.664l76.456,-254.92Zm465.657,-633.439l-47.845,455.356l87.119,-17.021l87.12,17.021l-47.845,-455.356c31.81,-14.788 53.861,-47.06 53.861,-84.464c0,-51.406 -41.689,-93.095 -93.136,-93.095c-51.447,0 -93.135,41.689 -93.135,93.095c-0,37.404 22.051,69.676 53.861,84.464Zm544.206,633.439l549.638,110.338l0,813.653c0,365.601 -209.066,638.468 -443.324,830.112c-128.647,105.247 -257.657,182.327 -393.004,249.146l0,-266.43c83.518,-47.483 164.602,-100.378 243.714,-165.105c188.545,-154.219 356.768,-369.383 356.768,-647.723l-0,-621.407l-237.336,-47.664l-76.456,-254.92Z" style="fill:#095;fill-rule:nonzero;"/><path d="M13533,821.086l-82.484,26.245c69.986,46.241 141.222,69.986 214.331,73.109c-46.866,-26.868 -91.856,-58.114 -131.847,-99.354Zm1436.59,-641.123c314.931,79.986 629.236,219.331 905.44,404.919c-36.25,366.178 -110.602,699.236 -223.079,999.794c-38.75,-66.227 -81.852,-126.227 -128.727,-181.206c-96.852,-113.727 -211.203,-206.208 -333.68,-286.817c119.352,137.472 211.829,286.817 264.953,451.148c35.602,109.375 53.728,225.579 51.852,349.931c-166.203,324.953 -383.657,607.384 -651.111,848.587c-44.375,-131.226 -35.625,-253.078 -2.5,-367.43c98.727,-340.556 411.158,-616.736 183.704,-882.315c171.852,386.181 -413.033,652.986 -604.259,1206c-41.227,119.351 -64.352,251.828 -56.852,402.43c-304.94,-188.079 -564.887,-410.532 -779.845,-670.486c38.743,-76.875 86.234,-149.352 143.722,-215.579c60.614,-70 132.472,-133.102 219.331,-188.727c-68.111,-20.625 -143.722,-32.477 -231.829,-31.852c88.107,-59.374 179.338,-101.875 271.195,-136.851c142.472,16.875 278.699,54.976 403.051,129.977c-53.75,-80 -122.477,-145.602 -214.963,-192.477c103.736,-31.227 205.588,-58.727 304.315,-94.352c61.852,28.75 119.977,64.375 171.852,107.477c-21.875,-49.977 -50.625,-96.852 -88.75,-140.602c20,-8.75 40,-17.477 60,-27.477c66.226,-33.125 107.476,-75 126.227,-121.852c38.101,11.25 70.601,27.477 101.851,46.227c-23.125,-41.227 -53.75,-76.227 -89.976,-105.602c0.624,-94.352 -78.75,-196.831 -223.727,-271.192c93.125,-16.245 189.976,-13.123 291.828,19.373c-112.477,-122.477 -255.578,-201.836 -433.032,-234.329c55.602,-52.491 115.602,-101.854 182.454,-146.22c-93.102,8.748 -181.204,26.868 -266.206,54.363l111.229,6.873l-140.579,119.977c104.352,16.87 200.579,44.991 279.931,91.857c-316.806,79.983 -498.644,153.719 -246.831,210.583c-199.95,108.727 -363.667,254.942 -168.704,296.817c-146.847,96.227 -268.072,84.977 -373.676,1.875c41.241,-0 82.484,-4.375 123.724,-15.625c-33.118,-23.75 -60.613,-56.852 -83.108,-99.352c46.24,11.875 92.481,17.5 138.722,17.5l-33.118,-48.75c103.104,-114.972 -52.489,-253.072 251.826,-314.308c-206.835,-108.104 -310.565,-44.99 -512.398,55.614l-73.111,-39.993c14.373,54.365 33.118,104.979 58.738,151.22c-65.611,-26.244 -130.599,-58.114 -194.335,-100.605c11.247,48.741 21.245,89.357 31.243,124.975c-118.102,-61.236 -209.959,-161.843 -267.447,-309.313c221.206,101.23 306.19,-34.993 470.532,19.996c-14.372,-23.746 -34.368,-44.366 -62.488,-57.489c46.866,-29.368 92.482,-60.613 140.597,-88.106c64.986,-35.618 144.97,3.125 198.086,-99.982c22.495,-44.365 47.491,-84.356 89.356,-118.099c-84.358,11.247 -136.847,41.241 -212.458,146.22c-68.111,95.606 -193.711,18.12 -305.562,-87.482c303.689,11.871 366.176,-301.19 656.118,-412.419c-31.868,46.866 -59.989,94.982 -79.984,146.222c140.597,-91.233 300.574,-159.345 454.278,-237.453c-66.852,-5.623 -133.102,-9.373 -198.704,-9.373c-112.477,0 -226.829,9.373 -341.808,26.87l-20.62,108.727c-72.486,61.239 -138.723,141.848 -217.456,184.963c48.74,-106.229 121.849,-194.96 191.21,-286.817c-334.308,56.863 -667.365,181.838 -947.935,344.931c74.361,586.134 273.697,1099.15 629.875,1522.81c-58.738,59.375 -110.602,123.102 -153.095,193.727c-354.928,-471.157 -571.134,-1056.05 -640.495,-1767.15c452.407,-304.314 1010.42,-483.03 1499.7,-483.03c134.352,0 273.704,13.123 414.282,38.743c60.625,-40.618 116.852,-86.859 168.102,-139.972c-6.875,63.113 -28.75,115.602 -59.375,161.843c-32.477,49.365 -76.227,90.606 -124.329,129.349c-140.601,112.477 -324.328,198.086 -415.558,359.303c94.355,-41.243 196.832,-68.111 307.433,-81.858l-180.578,-15.623l53.75,-46.866c153.703,-40.616 310.555,-58.738 469.282,-62.486c-73.125,29.368 -143.727,61.861 -211.852,99.354c256.829,52.489 470.533,160.593 644.885,319.31c-99.977,-23.12 -201.829,-34.99 -303.704,-33.118c195.602,81.859 348.68,201.211 460.532,356.804c52.5,-175.588 90,-359.301 114.352,-551.764c-249.306,-144.345 -539.884,-259.322 -836.065,-323.061c37.477,-38.742 69.352,-82.483 94.352,-131.224Z" style="fill:#db4733;fill-rule:nonzero;"/><g><path d="M11575.7,1786.61l-36.567,-316.376l17.477,-271.793l-334.398,110.726l263.295,-125.839l-0,-55.363c-0,-392.609 -407.554,-545.993 -407.554,-545.993l-134.714,312.609l148.55,-703.208l-290.171,-191.373l-290.17,191.373l148.549,703.208l-134.714,-312.609c0,0 -407.553,153.384 -407.553,545.993l-0,55.363l263.295,125.839l-334.399,-110.726l17.478,271.793l-36.567,316.376l80.439,-64.028l-72.109,327.009c0,0 116.253,296.283 516.062,605.836l14.38,-845.436l-341.306,-183.714l-17.666,-218.335l532.053,150.999l-60.325,407.679l122.553,113.259l122.553,-113.259l-60.324,-407.679l532.053,-150.999l-17.666,218.335l-341.306,183.714l14.38,845.436c399.809,-309.553 516.061,-605.836 516.061,-605.836l-72.108,-327.009l80.439,64.028Z" style="fill:#ffba03;fill-rule:nonzero;"/><path d="M12076,785.319l-27.106,-25.012c-16.389,-15.113 -342.478,-310.321 -874.51,-413.655l-33.344,134.163c23.297,12.278 52.705,29.086 85.128,50.482c357.883,88.749 602.801,266.979 681.314,330.087l0.021,64.28c-0,976.362 -368.601,1652.46 -1095.55,2009.53l-7.095,3.914c-0.796,0.461 -1.905,1.089 -3.287,1.8c-1.339,-0.691 -2.428,-1.298 -3.181,-1.737l-7.201,-3.977c-726.944,-357.067 -1095.54,-1033.38 -1095.54,-2010.1l0.021,-63.694c78.597,-63.192 323.305,-241.129 681.021,-329.919c32.548,-21.486 62.061,-38.359 85.42,-50.671l-33.343,-134.163c-532.032,103.334 -858.121,398.542 -874.51,413.655l-27.106,25.012l-0.021,139.759c-0,169.669 -0,566.987 152.736,997.481c186.267,524.957 534.146,916.038 1034.07,1162.44c18.377,10.592 46.3,22.585 54.944,26.227l32.695,13.773l32.695,-13.773c8.645,-3.642 36.567,-15.635 54.945,-26.227c499.735,-246.319 847.613,-637.944 1034.07,-1164.07c152.736,-430.976 152.736,-840.937 152.736,-995.263l-0.021,-140.345Z" style="fill:#ffba03;fill-rule:nonzero;"/></g></svg>